<svg xmlns="http://www.w3.org/2000/svg" width="32" height="32" viewBox="0 0 210 85" version="1.1"><path d="" stroke="none" fill="#309434" fill-rule="evenodd"/><path d="M 102.557 3.223 C 101.701 4.445, 101 6.228, 101 7.184 C 101 8.401, 99.724 9.233, 96.750 9.957 C 79.192 14.230, 63.865 29.480, 59.771 46.750 L 58.527 52 44.763 52 L 31 52 31 68 L 31 84 107.500 84 L 184 84 184 68 L 184 52 170.588 52 L 157.176 52 156.485 47.910 C 156.105 45.660, 154.033 40.302, 151.882 36.003 C 145.590 23.433, 134.804 14.615, 120.707 10.517 C 116.310 9.239, 115 8.415, 115 6.929 C 115 1.542, 105.678 -1.234, 102.557 3.223 M 105.709 5.624 C 103.992 7.342, 105.153 9, 108.073 9 C 110.461 9, 111.072 8.609, 110.813 7.250 C 110.472 5.460, 106.984 4.349, 105.709 5.624 M 95.500 14.404 C 79.600 19.454, 65.945 33.866, 63.433 48.250 L 62.777 52 107.889 52 C 146.807 52, 153 51.799, 153 50.538 C 153 47.799, 148.714 37.513, 145.786 33.223 C 139.454 23.947, 130.033 17.160, 119.650 14.395 C 113.285 12.700, 100.850 12.705, 95.500 14.404 M 102.123 18.935 C 99.292 25.515, 99.441 27.594, 102.993 31.147 C 106.331 34.484, 109.157 34.379, 112.250 30.802 C 115.334 27.235, 114.517 22.282, 110.118 17.882 C 107.982 15.747, 105.788 14, 105.241 14 C 104.694 14, 103.291 16.221, 102.123 18.935 M 118.802 30.949 C 114.234 31.837, 112.084 33.559, 110.345 37.718 C 108.838 41.324, 108.555 46, 109.845 46 C 110.310 46, 111.547 45.051, 112.595 43.892 C 113.643 42.733, 115.850 40.862, 117.500 39.735 C 119.676 38.248, 119.195 39.042, 115.750 42.627 C 110.425 48.167, 109.995 49.497, 113.250 50.370 C 122.746 52.914, 128.221 48.817, 131.300 36.861 L 132.752 31.221 129.126 30.622 C 124.950 29.931, 123.860 29.966, 118.802 30.949 M 83.560 33.250 C 86.101 41.478, 88.495 46.239, 91.261 48.566 C 93.967 50.843, 95.092 51.150, 99.263 50.749 C 106.711 50.033, 107.161 48.785, 101.954 43.298 L 97.500 38.604 102.402 42.493 L 107.303 46.382 106.750 41.474 C 106.317 37.633, 105.519 35.960, 103.083 33.782 C 100.191 31.199, 99.357 31, 91.417 31 C 83.009 31, 82.877 31.038, 83.560 33.250 M 35 67.500 L 35 80 108 80 L 181 80 181 67.500 L 181 55 169.800 55 C 161.089 55, 158.867 55.267, 159.800 56.200 C 161.790 58.190, 161.194 58.727, 157 58.727 C 152.806 58.727, 152.210 58.190, 154.200 56.200 C 155.133 55.267, 142.022 55, 95.200 55 L 35 55 35 67.500 M 123 58.884 C 123 59.371, 120.695 59.734, 117.878 59.692 C 111.715 59.599, 110 61.324, 110 67.620 C 110 72.635, 111.945 75, 116.071 75 C 118.333 75, 119 74.545, 119 73 C 119 71.855, 118.333 71, 117.440 71 C 116.248 71, 115.953 70.114, 116.190 67.250 C 116.399 64.721, 116.989 63.500, 118 63.500 C 119.125 63.500, 119.575 64.939, 119.800 69.250 C 120.112 75.237, 120.562 75.833, 123.201 73.750 C 125.363 72.043, 126.402 58, 124.366 58 C 123.615 58, 123 58.398, 123 58.884 M 84.028 60.112 C 80.722 61.433, 80.033 62.731, 80.015 67.679 C 79.995 73.128, 81.927 75, 87.571 75 C 91.333 75, 92 74.699, 92 73 C 92 71.444, 91.333 71, 89 71 C 86.390 71, 86.002 70.642, 86.015 68.250 C 86.037 64.296, 87.355 62.661, 89.875 63.460 C 91.574 64, 92 63.720, 92 62.067 C 92 60.930, 91.362 60, 90.582 60 C 89.802 60, 88.564 59.803, 87.832 59.563 C 87.099 59.322, 85.388 59.569, 84.028 60.112 M 153.250 60.144 C 150.681 60.866, 149.962 61.628, 149.817 63.779 C 149.501 68.484, 150.017 72.316, 151.151 73.682 C 152.525 75.337, 161.175 75.425, 162.800 73.800 C 164.432 72.168, 164.390 61.057, 162.750 60.552 C 159.173 59.450, 156.175 59.321, 153.250 60.144 M 51 62.500 C 51 63.875, 50.550 65, 50 65 C 49.450 65, 49 65.900, 49 67 C 49 68.100, 49.450 69, 50 69 C 50.550 69, 51 70.350, 51 72 C 51 74.915, 51.136 75, 55.777 75 C 62.385 75, 65 72.980, 65 67.878 C 65 61.160, 63.817 60, 56.965 60 C 51.269 60, 51 60.113, 51 62.500 M 67 67.500 C 67 74.833, 67.056 75, 69.500 75 C 71.944 75, 72 74.833, 72 67.500 C 72 60.167, 71.944 60, 69.500 60 C 67.056 60, 67 60.167, 67 67.500 M 94 67.500 C 94 74.833, 94.056 75, 96.500 75 C 98.944 75, 99 74.833, 99 67.500 C 99 60.167, 98.944 60, 96.500 60 C 94.056 60, 94 60.167, 94 67.500 M 103 62.500 C 103 64.056, 102.433 65, 101.500 65 C 100.667 65, 100 65.889, 100 67 C 100 68.111, 100.667 69, 101.500 69 C 102.500 69, 103 70, 103 72 C 103 74.533, 103.389 75, 105.500 75 C 107.944 75, 108 74.833, 108 67.500 C 108 60.167, 107.944 60, 105.500 60 C 103.500 60, 103 60.500, 103 62.500 M 133 67.500 L 133 75 136 75 C 138.667 75, 139 74.667, 139 72 C 139 70, 139.500 69, 140.500 69 C 141.500 69, 142 70, 142 72 C 142 74.667, 142.333 75, 145 75 L 148 75 148 67.500 L 148 60 145 60 C 142.467 60, 142 60.389, 142 62.500 C 142 64.056, 141.433 65, 140.500 65 C 139.567 65, 139 64.056, 139 62.500 C 139 60.389, 138.533 60, 136 60 L 133 60 133 67.500 M 56 64 C 56 64.550, 56.450 65, 57 65 C 57.550 65, 58 65.900, 58 67 C 58 68.100, 57.550 69, 57 69 C 56.450 69, 56 69.450, 56 70 C 56 70.550, 56.675 71, 57.500 71 C 58.583 71, 59 69.889, 59 67 C 59 64.111, 58.583 63, 57.500 63 C 56.675 63, 56 63.450, 56 64 M 155.667 63.667 C 155.300 64.033, 155 65.781, 155 67.550 C 155 69.926, 155.523 70.903, 157 71.290 C 158.777 71.754, 159 71.320, 159 67.406 C 159 63.245, 157.628 61.706, 155.667 63.667 M 116 77.500 C 116 78.333, 116.889 79, 118 79 C 119.111 79, 120 78.333, 120 77.500 C 120 76.667, 119.111 76, 118 76 C 116.889 76, 116 76.667, 116 77.500 M 155 77.500 C 155 78.333, 155.889 79, 157 79 C 158.111 79, 159 78.333, 159 77.500 C 159 76.667, 158.111 76, 157 76 C 155.889 76, 155 76.667, 155 77.500" stroke="none" fill="#2c9434" fill-rule="evenodd"/></svg>